<svg width="556" height="134" xmlns="http://www.w3.org/2000/svg" xmlns:svg="http://www.w3.org/2000/svg" class="c-sidebar-brand-full c-icon c-icon-custom-size">
 <g class="layer">
  <title>Layer 1</title>
  <g id="svg_10">
   <path d="m99.367,36.0577l-39,-22.5167a12,12 0 0 0 -12,0l-39,22.5166a12.0337,12.0337 0 0 0 -6,10.3924l0,45.0333a12.0331,12.0331 0 0 0 6,10.3923l39,22.5167a12,12 0 0 0 12,0l39,-22.5167a12.0333,12.0333 0 0 0 6,-10.3923l0,-45.0333a12.0336,12.0336 0 0 0 -6,-10.3923zm-2,55.4256a4,4 0 0 1 -2,3.4641l-39,22.5167a4.0006,4.0006 0 0 1 -4,0l-39,-22.5167a4,4 0 0 1 -2,-3.4641l0,-45.0333a4,4 0 0 1 2,-3.4642l39,-22.5166a4,4 0 0 1 4,0l39,22.5166a4,4 0 0 1 2,3.4642l0,45.0333z" fill="#ffffff" id="svg_11"/>
   <path d="m77.3886,82.0046l-2.866,0a4.0007,4.0007 0 0 0 -1.9247,0.4934l-17.2807,9.4853l-19.9502,-11.5185l0,-22.9776l19.95,-11.5185l17.289,9.4549a3.9993,3.9993 0 0 0 1.9192,0.4906l2.8632,0a2,2 0 0 0 2,-2l0,-2.7118a2,2 0 0 0 -1.04,-1.7547l-19.1884,-10.4956a8.0389,8.0389 0 0 0 -7.8427,0.09l-19.9508,11.5179a8.0245,8.0245 0 0 0 -3.9995,6.9287l0,22.976a8,8 0 0 0 4,6.9283l19.95,11.5186a8.0427,8.0427 0 0 0 7.8432,0.0879l19.19,-10.5312a2,2 0 0 0 1.0378,-1.7533l0,-2.71a2,2 0 0 0 -1.9994,-2.0004z" fill="#ffffff" id="svg_12"/>
  </g>
  <text fill="#ffffff" font-family="Segoe UI" font-size="57" id="svg_20" stroke="#000000" stroke-width="0" text-anchor="middle" x="227" xml:space="preserve" y="87.5">ОЛЯРИС</text>
  <text fill="#007fff" font-family="Segoe UI" font-size="57" id="svg_21" stroke="#000000" stroke-width="0" text-anchor="middle" x="448" xml:space="preserve" y="86.5">НАУКА</text>
 </g>
</svg>